<svg width="32" height="17" viewBox="0 0 32 17" fill="none" xmlns="http://www.w3.org/2000/svg">
<path d="M1.40541 16H1L12.9595 1.25M1.40541 16H10.527M1.40541 16L1.81081 15.5M13.3649 1.25L13.1622 1L12.9595 1.25M13.3649 1.25L16 4.5M13.3649 1.25L10.527 4.75M18.027 7L17.8243 7.25M18.027 7L16.2027 4.75M18.027 7L18.8378 8M17.8243 7.25L16 5M17.8243 7.25L18.8378 8.5M12.9595 1.25L15.7973 4.75M16 4.5L16.2027 4.75M16 4.5L18.6351 1.25M16 4.5L15.7973 4.75M18.8378 1L19.0405 1.25L16.2027 4.75M18.8378 1L31 16M18.8378 1L18.6351 1.25M16.2027 4.75L16 5M16.2027 4.75V16H15.7973M31 16H30.5946L30.1892 15.5M31 16H21.473M18.6351 1.25L21.473 4.75M16 5L15.7973 4.75M16 5L10.527 11.75M15.7973 4.75L10.527 11.25M15.7973 4.75V15.5M15.7973 16L10.527 11.75M15.7973 16V15.5M18.8378 8.5V8M18.8378 8.5L21.6757 5M18.8378 8L21.473 4.75M21.473 4.75L21.6757 5M21.473 4.75V15.5M21.6757 5L21.8784 5.25M21.473 16H21.8784V5.25M21.473 16V15.5M21.8784 5.25L30.1892 15.5M10.527 4.75L10.1216 5V16H10.527M10.527 4.75V11.25M10.527 4.75L1.81081 15.5M10.527 16V15.5M10.527 11.25V11.75M10.527 11.25L15.7973 15.5M10.527 11.75V15.5M10.527 15.5H1.81081M21.473 15.5H30.1892" stroke="url(#paint0_linear_1_26)" stroke-width="1.5" stroke-linecap="square" stroke-linejoin="round"/>
<defs>
<linearGradient id="paint0_linear_1_26" x1="16" y1="1" x2="16" y2="16" gradientUnits="userSpaceOnUse">
<stop offset="0.247793"/>
<stop offset="0.571726" stop-color="#D40E0E"/>
<stop offset="0.862901" stop-color="#F7D200"/>
</linearGradient>
</defs>
</svg>
